<?xml version="1.0" encoding="utf-8"?>
<!-- Generator: Adobe Illustrator 16.0.0, SVG Export Plug-In . SVG Version: 6.00 Build 0)  -->
<!DOCTYPE svg PUBLIC "-//W3C//DTD SVG 1.1//EN" "http://www.w3.org/Graphics/SVG/1.1/DTD/svg11.dtd">
<svg version="1.1" id="Layer_1" xmlns="http://www.w3.org/2000/svg" xmlns:xlink="http://www.w3.org/1999/xlink" x="0px" y="0px"
	 width="50px" height="50px" viewBox="0 0 50 50" enable-background="new 0 0 50 50" xml:space="preserve">
<g>
	<path fill="#F36F37" d="M15.353,21.587c-0.496,0-0.898-0.403-0.898-0.898v-3.228c0-0.496,0.402-0.898,0.898-0.898h8.426v-5.102
		H11.67c-1.221,0-2.211,0.99-2.211,2.211v10.65c0,1.222,0.99,2.21,2.211,2.21h12.108v-4.946H15.353z"/>
	<path fill="#A1C53A" d="M37.132,28.641c1.731-0.938,2.035-3.231,2.086-4.565c-0.768,1.498-2.625,0.843-3.607,1.217
		c-0.983,0.375-1.21,1.418-0.953,2.375c0.01,0.033,0.02,0.064,0.028,0.098c0.46-0.053,2.062,0.043,3.662-2.079
		c-0.439,0.944-1.509,2.141-3.438,2.53c0.214,0.285,0.439,0.32,0.421,0.398c-0.012,0.031-0.021,0.059-0.031,0.088
		c0.921,0.037,1.666,0.197,2.22,1.326c-0.78-1.01-1.93-1.043-2.305-1.023c-0.27,1.248,0.862,1.365,1.332,1.365
		c0.516,0,1.007-0.117,1.381,0.352C38.021,30.068,37.717,29.063,37.132,28.641z"/>
	<path fill="#258ACA" d="M35.462,24.907c0.386-0.147,0.833-0.161,1.307-0.177c1.011-0.031,1.702-0.106,2.081-0.843l0.368-0.721
		v-9.494c0-1.221-0.989-2.211-2.212-2.211H24.899v5.102h8.523c0.495,0,0.897,0.402,0.897,0.898v3.228
		c0,0.495-0.402,0.898-0.897,0.898h-8.523v4.946h9.277C34.297,25.778,34.75,25.177,35.462,24.907z"/>
	<path fill="#FFFFFF" d="M1.787,33.604h2.131v-0.9H1.787c-1.102,0-1.871,0.879-1.871,1.803c0,0.725,0,0.813,0,1.318
		c0,0.873,0.841,1.67,1.871,1.67h2.131v-0.9H1.787c-0.289,0-0.772-0.439-0.772-0.967s0-0.836,0-1.145
		C1.015,34.176,1.439,33.604,1.787,33.604z"/>
	<path fill="#FFFFFF" d="M15.313,33.604h2.131v-0.9h-2.131c-1.103,0-1.872,0.879-1.872,1.803c0,0.725,0,0.813,0,1.318
		c0,0.873,0.841,1.67,1.872,1.67h2.131v-0.9h-2.131c-0.29,0-0.773-0.439-0.773-0.967s0-0.836,0-1.145
		C14.54,34.176,14.964,33.604,15.313,33.604z"/>
	<path fill="#FFFFFF" d="M47.931,33.604h2.132v-0.9h-2.132c-1.102,0-1.871,0.879-1.871,1.803c0,0.725,0,0.813,0,1.318
		c0,0.873,0.842,1.67,1.871,1.67h2.132v-0.9h-2.132c-0.288,0-0.772-0.439-0.772-0.967s0-0.836,0-1.145
		C47.158,34.176,47.582,33.604,47.931,33.604z"/>
	<path fill="#FFFFFF" d="M6.875,33.959c-0.44,0-2.268,0-2.268,0v0.762c0,0,1.777,0,2.065,0s0.372,0.305,0.372,0.695
		c0,0-1.388,0-1.658,0c-0.457,0-1.015,0.463-1.015,1.039c0,0.574,0.406,1.039,1.015,1.039c0.324,0,1.161,0,1.658,0h0.389h0.559
		c0,0,0-1.859,0-2.434C7.992,34.346,7.395,33.959,6.875,33.959z M5.64,36.82c-0.423,0-0.457-0.744-0.034-0.744
		c0.161,0,0.999,0,1.438,0c0,0.24,0,0.508,0,0.744C6.751,36.82,5.904,36.82,5.64,36.82z"/>
	<rect x="8.753" y="32.674" fill="#FFFFFF" width="0.863" height="4.82"/>
	<rect x="10.361" y="34.771" fill="#FFFFFF" width="2.471" height="0.896"/>
	<path fill="#FFFFFF" d="M19.955,33.982c-1.151,0-2.084,0.826-2.084,1.846s0.933,1.846,2.084,1.846c1.151,0,2.084-0.826,2.084-1.846
		S21.105,33.982,19.955,33.982z M19.922,36.943c-0.575,0-1.042-0.506-1.042-1.129c0-0.621,0.466-1.127,1.042-1.127
		c0.576,0,1.042,0.506,1.042,1.127C20.964,36.438,20.498,36.943,19.922,36.943z"/>
	<path fill="#FFFFFF" d="M26.554,33.982c-0.14,0-0.466,0-0.875,0h-0.99c-0.407,0-0.82,0-1.175,0h-0.99v0.758v2.74h0.99v-2.74
		c0.36,0,0.776,0,1.175,0v2.74h0.99v-2.74c0.315,0,0.542,0,0.601,0c0.313,0,0.528,0.127,0.528,0.535c0,0.297,0,2.205,0,2.205h0.875
		c0,0,0-1.979,0-2.439C27.683,34.457,27.236,33.982,26.554,33.982z"/>
	<path fill="#FFFFFF" d="M32.497,33.982c-0.141,0-0.467,0-0.875,0h-0.991c-0.407,0-0.82,0-1.174,0h-0.991v0.758v2.74h0.991v-2.74
		c0.359,0,0.775,0,1.174,0v2.74h0.991v-2.74c0.315,0,0.542,0,0.601,0c0.312,0,0.527,0.127,0.527,0.535c0,0.297,0,2.205,0,2.205
		h0.876c0,0,0-1.979,0-2.439C33.626,34.457,33.179,33.982,32.497,33.982z"/>
	<path fill="#FFFFFF" d="M37.014,32.725c0,0,0,2.859,0,3.57s0.745,1.186,1.402,1.186s2.54,0,2.54,0v-0.688c0,0-0.87,0-1.705,0
		s-1.083-0.461-1.083-0.941s0-3.127,0-3.127H37.014z"/>
	<path fill="#FFFFFF" d="M41.632,32.725c0,0,0,2.859,0,3.57s0.746,1.186,1.403,1.186s2.54,0,2.54,0v-0.688c0,0-0.87,0-1.705,0
		s-1.083-0.461-1.083-0.941s0-3.127,0-3.127H41.632z"/>
</g>
</svg>
