<?xml version="1.0" encoding="utf-8"?>
<!-- Generator: Adobe Illustrator 16.0.0, SVG Export Plug-In . SVG Version: 6.00 Build 0)  -->
<!DOCTYPE svg PUBLIC "-//W3C//DTD SVG 1.1//EN" "http://www.w3.org/Graphics/SVG/1.1/DTD/svg11.dtd">
<svg version="1.1" id="Layer_1" xmlns="http://www.w3.org/2000/svg" xmlns:xlink="http://www.w3.org/1999/xlink" x="0px" y="0px"
	 width="50px" height="50px" viewBox="0 0 50 50" enable-background="new 0 0 50 50" xml:space="preserve">
<g>
	<path id="f" fill="#FFFFFF" d="M26.104,40.361V26.347h4.705l0.703-5.46h-5.408v-3.487c0-1.582,0.439-2.659,2.707-2.659l2.893-0.001
		V9.853c-0.5-0.066-2.218-0.215-4.214-0.215c-4.17,0-7.025,2.546-7.025,7.219v4.029h-4.715v5.46h4.715v14.015H26.104z"/>
	<g>
		<path fill="#FFFFFF" d="M25.007,50.008C11.219,50.008,0,38.789,0,25S11.219-0.008,25.007-0.008S50.014,11.211,50.014,25
			S38.795,50.008,25.007,50.008z M25.007,4.018C13.438,4.018,4.025,13.43,4.025,25c0,11.567,9.412,20.979,20.981,20.979
			S45.988,36.567,45.988,25C45.988,13.43,36.576,4.018,25.007,4.018z"/>
	</g>
</g>
</svg>
