<?xml version="1.0" encoding="utf-8"?>
<!-- Generator: Adobe Illustrator 16.0.0, SVG Export Plug-In . SVG Version: 6.00 Build 0)  -->
<!DOCTYPE svg PUBLIC "-//W3C//DTD SVG 1.1//EN" "http://www.w3.org/Graphics/SVG/1.1/DTD/svg11.dtd">
<svg version="1.1" id="Layer_1" xmlns="http://www.w3.org/2000/svg" xmlns:xlink="http://www.w3.org/1999/xlink" x="0px" y="0px"
	 width="50px" height="50px" viewBox="0 0 50 50" enable-background="new 0 0 50 50" xml:space="preserve">
<path fill-rule="evenodd" clip-rule="evenodd" fill="#FFFFFF" d="M16.646,13.601h16.776c1.594,0,2.897,1.304,2.897,2.897v16.777
	c0,1.594-1.304,2.897-2.897,2.897H16.646c-1.593,0-2.897-1.304-2.897-2.897V16.498C13.75,14.904,15.053,13.601,16.646,13.601
	L16.646,13.601z M30.191,16.108c-0.56,0-1.017,0.457-1.017,1.016v2.432c0,0.559,0.457,1.016,1.017,1.016h2.551
	c0.559,0,1.017-0.457,1.017-1.016v-2.432c0-0.559-0.458-1.016-1.017-1.016H30.191L30.191,16.108z M33.77,23.146h-1.987
	c0.188,0.614,0.29,1.264,0.29,1.937c0,3.754-3.142,6.797-7.016,6.797s-7.015-3.043-7.015-6.797c0-0.673,0.101-1.323,0.289-1.937
	h-2.073v9.535c0,0.493,0.404,0.896,0.897,0.896h15.718c0.493,0,0.897-0.403,0.897-0.896V23.146L33.77,23.146z M25.056,20.445
	c-2.503,0-4.533,1.967-4.533,4.392c0,2.426,2.029,4.393,4.533,4.393s4.533-1.967,4.533-4.393
	C29.589,22.412,27.56,20.445,25.056,20.445z"/>
<g>
	<path fill="#FFFFFF" d="M25.035,49.852c-13.766,0-24.965-11.199-24.965-24.965c0-13.766,11.199-24.965,24.965-24.965
		S50,11.121,50,24.886C50,38.652,38.801,49.852,25.035,49.852z M25.035,3.94c-11.55,0-20.947,9.396-20.947,20.946
		c0,11.55,9.397,20.947,20.947,20.947c11.55,0,20.947-9.396,20.947-20.947C45.981,13.336,36.585,3.94,25.035,3.94z"/>
</g>
</svg>
