<?xml version="1.0" encoding="utf-8"?>
<!-- Generator: Adobe Illustrator 16.0.0, SVG Export Plug-In . SVG Version: 6.00 Build 0)  -->
<!DOCTYPE svg PUBLIC "-//W3C//DTD SVG 1.1//EN" "http://www.w3.org/Graphics/SVG/1.1/DTD/svg11.dtd">
<svg version="1.1" id="Layer_1" xmlns="http://www.w3.org/2000/svg" xmlns:xlink="http://www.w3.org/1999/xlink" x="0px" y="0px"
	 width="200px" height="200px" viewBox="0 0 200 200" enable-background="new 0 0 200 200" xml:space="preserve">
<g>
	<path fill="#F36F37" d="M41.917,106.849c-3.271,0-5.921-2.652-5.921-5.919V79.648c0-3.271,2.648-5.921,5.921-5.921h55.546V40.095
		H17.635c-8.048,0-14.575,6.527-14.575,14.575v70.211c0,8.059,6.528,14.563,14.575,14.563h79.821v-32.601H41.916L41.917,106.849
		L41.917,106.849z"/>
	<path fill="#A1C53A" d="M185.496,153.353c11.412-6.18,13.413-21.298,13.752-30.093c-5.062,9.877-17.307,5.556-23.776,8.022
		c-6.486,2.472-7.982,9.347-6.285,15.655c0.063,0.224,0.128,0.423,0.178,0.647c3.037-0.347,13.597,0.28,24.141-13.703
		c-2.89,6.221-9.945,14.113-22.657,16.675c1.408,1.879,2.896,2.108,2.772,2.628c-0.082,0.203-0.133,0.383-0.204,0.577
		c6.072,0.245,10.982,1.302,14.634,8.746c-5.134-6.657-12.721-6.875-15.189-6.748c-1.779,8.228,5.682,8.998,8.78,8.998
		c3.4,0,6.646-0.772,9.104,2.316C191.358,162.766,189.351,156.132,185.496,153.353z"/>
	<path fill="#258ACA" d="M174.486,128.741c2.541-0.971,5.489-1.064,8.621-1.169c6.656-0.203,11.214-0.698,13.715-5.556l2.43-4.753
		V54.67c0-8.048-6.521-14.575-14.579-14.575H104.85v33.633h56.184c3.268,0,5.912,2.65,5.912,5.921v21.282
		c0,3.267-2.647,5.919-5.912,5.919H104.85v32.61h61.156C166.807,134.475,169.792,130.519,174.486,128.741z"/>
</g>
</svg>
