<?xml version="1.0" encoding="utf-8"?>
<!-- Generator: Adobe Illustrator 16.0.0, SVG Export Plug-In . SVG Version: 6.00 Build 0)  -->
<!DOCTYPE svg PUBLIC "-//W3C//DTD SVG 1.1//EN" "http://www.w3.org/Graphics/SVG/1.1/DTD/svg11.dtd">
<svg version="1.1" id="Layer_1" xmlns="http://www.w3.org/2000/svg" xmlns:xlink="http://www.w3.org/1999/xlink" x="0px" y="0px"
	 width="50px" height="50px" viewBox="0 0 200 200" enable-background="new 0 0 50 50" xml:space="preserve">
<g>
	<path fill="#F36F37" d="M61.568,80.48c-1.979,0-3.582-1.605-3.582-3.581V64.024c0-1.979,1.602-3.582,3.582-3.582h33.604V40.095
		H46.878c-4.869,0-8.818,3.949-8.818,8.818v42.476c0,4.875,3.95,8.811,8.818,8.811h48.29V80.477H61.567L61.568,80.48L61.568,80.48z"
		/>
	<path fill="#A1C53A" d="M148.43,108.613c6.904-3.738,8.115-12.884,8.32-18.205c-3.063,5.975-10.471,3.361-14.385,4.853
		c-3.924,1.496-4.829,5.655-3.803,9.471c0.039,0.135,0.078,0.256,0.109,0.392c1.837-0.21,8.225,0.17,14.604-8.29
		c-1.748,3.764-6.016,8.538-13.707,10.088c0.852,1.137,1.752,1.275,1.677,1.59c-0.05,0.123-0.08,0.231-0.123,0.35
		c3.673,0.148,6.644,0.787,8.853,5.291c-3.106-4.028-7.695-4.16-9.19-4.082c-1.076,4.977,3.438,5.443,5.312,5.443
		c2.057,0,4.021-0.468,5.508,1.401C151.977,114.309,150.762,110.295,148.43,108.613z"/>
	<path fill="#258ACA" d="M141.77,93.724c1.537-0.587,3.32-0.644,5.215-0.707c4.027-0.123,6.785-0.423,8.297-3.361l1.47-2.875V48.913
		c0-4.869-3.946-8.818-8.821-8.818H99.64v20.348h33.991c1.977,0,3.576,1.603,3.576,3.582V76.9c0,1.976-1.602,3.581-3.576,3.581
		H99.64v19.728h36.999C137.123,97.193,138.93,94.8,141.77,93.724z"/>
	<path fill="#686969" d="M7.463,128.406h8.499v-3.588H7.463c-4.395,0-7.462,3.506-7.462,7.19c0,2.892,0,3.243,0,5.259
		c0,3.478,3.352,6.66,7.462,6.66h8.499v-3.588H7.463c-1.153,0-3.079-1.753-3.079-3.859s0-3.334,0-4.569
		C4.384,130.688,6.075,128.406,7.463,128.406z"/>
	<path fill="#686969" d="M61.408,128.406h8.499v-3.588h-8.499c-4.399,0-7.466,3.506-7.466,7.19c0,2.892,0,3.243,0,5.259
		c0,3.478,3.354,6.66,7.466,6.66h8.499v-3.588h-8.499c-1.157,0-3.082-1.753-3.082-3.859s0-3.334,0-4.569
		C58.325,130.688,60.016,128.406,61.408,128.406z"/>
	<path fill="#686969" d="M191.502,128.406H200v-3.588h-8.498c-4.396,0-7.464,3.506-7.464,7.19c0,2.892,0,3.243,0,5.259
		c0,3.478,3.356,6.66,7.464,6.66H200v-3.588h-8.498c-1.152,0-3.081-1.753-3.081-3.859s0-3.334,0-4.569
		C188.417,130.688,190.107,128.406,191.502,128.406z"/>
	<path fill="#686969" d="M27.754,129.822c-1.754,0-9.045,0-9.045,0v3.039c0,0,7.086,0,8.236,0c1.148,0,1.484,1.217,1.484,2.772
		c0,0-5.537,0-6.611,0c-1.823,0-4.05,1.847-4.05,4.146c0,2.289,1.619,4.145,4.05,4.145c1.291,0,4.629,0,6.611,0h1.552h2.229
		c0,0,0-7.417,0-9.707C32.211,131.365,29.828,129.822,27.754,129.822z M22.83,141.234c-1.689,0-1.823-2.967-0.137-2.967
		c0.643,0,3.985,0,5.735,0c0,0.957,0,2.024,0,2.967C27.26,141.234,23.88,141.234,22.83,141.234z"/>
	<rect x="35.244" y="124.697" fill="#686969" width="3.443" height="19.227"/>
	<rect x="41.657" y="133.064" fill="#686969" width="9.856" height="3.572"/>
	<path fill="#686969" d="M79.922,129.917c-4.59,0-8.312,3.295-8.312,7.36c0,4.066,3.722,7.361,8.312,7.361
		c4.59,0,8.312-3.295,8.312-7.361C88.234,133.212,84.508,129.917,79.922,129.917z M79.791,141.727c-2.292,0-4.156-2.018-4.156-4.502
		c0-2.478,1.861-4.494,4.156-4.494c2.297,0,4.156,2.017,4.156,4.494C83.946,139.709,82.088,141.727,79.791,141.727z"/>
	<path fill="#686969" d="M106.244,129.917c-0.563,0-1.862,0-3.49,0h-3.951c-1.622,0-3.27,0-4.686,0h-3.95v3.021v10.931h3.95v-10.931
		c1.435,0,3.095,0,4.686,0v10.931h3.951v-10.931c1.254,0,2.157,0,2.391,0c1.25,0,2.111,0.508,2.111,2.138c0,1.185,0,8.794,0,8.794
		h3.489c0,0,0-7.896,0-9.729C110.747,131.811,108.964,129.917,106.244,129.917z"/>
	<path fill="#686969" d="M129.943,129.917c-0.563,0-1.865,0-3.49,0h-3.952c-1.621,0-3.271,0-4.683,0h-3.952v3.021v10.931h3.952
		v-10.931c1.436,0,3.094,0,4.683,0v10.931h3.952v-10.931c1.26,0,2.162,0,2.396,0c1.244,0,2.103,0.508,2.103,2.138
		c0,1.185,0,8.794,0,8.794h3.493c0,0,0-7.896,0-9.729C134.445,131.811,132.666,129.917,129.943,129.917z"/>
	<path fill="#686969" d="M147.958,124.9c0,0,0,11.404,0,14.24c0,2.834,2.972,4.729,5.593,4.729c2.618,0,10.131,0,10.131,0v-2.741
		c0,0-3.472,0-6.802,0c-3.329,0-4.317-1.839-4.317-3.757c0-1.911,0-12.471,0-12.471H147.958z"/>
	<path fill="#686969" d="M166.377,124.9c0,0,0,11.404,0,14.24c0,2.834,2.975,4.729,5.596,4.729c2.618,0,10.131,0,10.131,0v-2.741
		c0,0-3.471,0-6.801,0s-4.318-1.839-4.318-3.757c0-1.911,0-12.471,0-12.471H166.377z"/>
</g>
</svg>
