<?xml version="1.0" encoding="utf-8"?>
<!-- Generator: Adobe Illustrator 16.0.0, SVG Export Plug-In . SVG Version: 6.00 Build 0)  -->
<!DOCTYPE svg PUBLIC "-//W3C//DTD SVG 1.1//EN" "http://www.w3.org/Graphics/SVG/1.1/DTD/svg11.dtd">
<svg version="1.1" id="Layer_1" xmlns="http://www.w3.org/2000/svg" xmlns:xlink="http://www.w3.org/1999/xlink" x="0px" y="0px"
	 width="50px" height="50px" viewBox="0 0 200 200" enable-background="new 0 0 200 200" xml:space="preserve">
<g>
	<path fill="#228ACA" d="M153.719,66.68c-3.953,1.752-8.203,2.939-12.656,3.473c4.547-2.728,8.047-7.049,9.688-12.193
		c-4.253,2.526-8.977,4.361-13.999,5.35c-4.017-4.286-9.743-6.961-16.082-6.961c-12.172,0-22.039,9.869-22.039,22.045
		c0,1.727,0.195,3.408,0.57,5.023c-18.318-0.918-34.562-9.695-45.431-23.027c-1.896,3.252-2.985,7.039-2.985,11.081
		c0,7.643,3.888,14.39,9.808,18.344c-3.611-0.114-7.011-1.104-9.988-2.756c0,0.091,0,0.184,0,0.275
		c0,10.679,7.596,19.589,17.68,21.613c-1.852,0.5-3.795,0.773-5.806,0.773c-1.416,0-2.801-0.142-4.148-0.396
		c2.809,8.758,10.943,15.132,20.592,15.308c-7.548,5.917-17.049,9.433-27.375,9.433c-1.781,0-3.538-0.102-5.262-0.305
		c9.758,6.25,21.339,9.902,33.793,9.902c40.542,0,62.712-33.582,62.712-62.717c0-0.955-0.022-1.908-0.069-2.852
		C147.023,74.984,150.766,71.1,153.719,66.68z"/>
	<g>
		<path fill="#228ACA" d="M100,200C44.859,200,0,155.141,0,100C0,44.859,44.859,0,100,0c55.141,0,100,44.859,100,100
			C200,155.141,155.141,200,100,200z M100,16.095c-46.264,0-83.905,37.641-83.905,83.905c0,46.258,37.641,83.906,83.905,83.906
			c46.266,0,83.906-37.641,83.906-83.906C183.906,53.736,146.266,16.095,100,16.095z"/>
	</g>
</g>
</svg>
